<mxfile host="app.diagrams.net" agent="Mozilla/5.0 (Windows NT 10.0; Win64; x64) AppleWebKit/537.36 (KHTML, like Gecko) Chrome/135.0.0.0 Safari/537.36 Edg/135.0.0.0" version="27.0.3">
  <diagram name="第 1 页" id="DJ5Nq0a7YHzup-p4Gy-w">
    <mxGraphModel dx="1418" dy="760" grid="1" gridSize="10" guides="1" tooltips="1" connect="1" arrows="1" fold="1" page="1" pageScale="1" pageWidth="827" pageHeight="1169" math="0" shadow="0">
      <root>
        <mxCell id="0" />
        <mxCell id="1" parent="0" />
        <mxCell id="BzA5FCxmW6zp7bEwmdEX-1" value="" style="rounded=0;whiteSpace=wrap;html=1;" vertex="1" parent="1">
          <mxGeometry x="80" y="130" width="680" height="290" as="geometry" />
        </mxCell>
        <mxCell id="BzA5FCxmW6zp7bEwmdEX-7" value="目录" style="text;strokeColor=none;fillColor=none;html=1;fontSize=18;fontStyle=1;verticalAlign=middle;align=center;" vertex="1" parent="1">
          <mxGeometry x="80" y="130" width="100" height="40" as="geometry" />
        </mxCell>
        <mxCell id="BzA5FCxmW6zp7bEwmdEX-8" value="数据管理" style="text;strokeColor=#666666;fillColor=#f5f5f5;html=1;fontSize=18;fontStyle=1;verticalAlign=middle;align=center;fontColor=#333333;" vertex="1" parent="1">
          <mxGeometry x="80" y="210" width="100" height="40" as="geometry" />
        </mxCell>
        <mxCell id="BzA5FCxmW6zp7bEwmdEX-9" value="作业" style="text;strokeColor=none;fillColor=none;html=1;fontSize=18;fontStyle=1;verticalAlign=middle;align=center;" vertex="1" parent="1">
          <mxGeometry x="80" y="170" width="100" height="40" as="geometry" />
        </mxCell>
        <mxCell id="BzA5FCxmW6zp7bEwmdEX-13" value="" style="shape=table;startSize=0;container=1;collapsible=0;childLayout=tableLayout;fontSize=12;" vertex="1" parent="1">
          <mxGeometry x="180" y="210" width="580" height="130" as="geometry" />
        </mxCell>
        <mxCell id="BzA5FCxmW6zp7bEwmdEX-14" value="" style="shape=tableRow;horizontal=0;startSize=0;swimlaneHead=0;swimlaneBody=0;strokeColor=inherit;top=0;left=0;bottom=0;right=0;collapsible=0;dropTarget=0;fillColor=none;points=[[0,0.5],[1,0.5]];portConstraint=eastwest;fontSize=16;" vertex="1" parent="BzA5FCxmW6zp7bEwmdEX-13">
          <mxGeometry width="580" height="43" as="geometry" />
        </mxCell>
        <mxCell id="BzA5FCxmW6zp7bEwmdEX-15" value="名称" style="shape=partialRectangle;html=1;whiteSpace=wrap;connectable=0;strokeColor=#666666;overflow=hidden;fillColor=#f5f5f5;top=0;left=0;bottom=0;right=0;pointerEvents=1;fontSize=16;fontColor=#333333;" vertex="1" parent="BzA5FCxmW6zp7bEwmdEX-14">
          <mxGeometry width="80" height="43" as="geometry">
            <mxRectangle width="80" height="43" as="alternateBounds" />
          </mxGeometry>
        </mxCell>
        <mxCell id="BzA5FCxmW6zp7bEwmdEX-16" value="类型" style="shape=partialRectangle;html=1;whiteSpace=wrap;connectable=0;strokeColor=#666666;overflow=hidden;fillColor=#f5f5f5;top=0;left=0;bottom=0;right=0;pointerEvents=1;fontSize=16;fontColor=#333333;" vertex="1" parent="BzA5FCxmW6zp7bEwmdEX-14">
          <mxGeometry x="80" width="60" height="43" as="geometry">
            <mxRectangle width="60" height="43" as="alternateBounds" />
          </mxGeometry>
        </mxCell>
        <mxCell id="BzA5FCxmW6zp7bEwmdEX-17" value="版本" style="shape=partialRectangle;html=1;whiteSpace=wrap;connectable=0;strokeColor=#666666;overflow=hidden;fillColor=#f5f5f5;top=0;left=0;bottom=0;right=0;pointerEvents=1;fontSize=16;fontColor=#333333;" vertex="1" parent="BzA5FCxmW6zp7bEwmdEX-14">
          <mxGeometry x="140" width="63" height="43" as="geometry">
            <mxRectangle width="63" height="43" as="alternateBounds" />
          </mxGeometry>
        </mxCell>
        <mxCell id="BzA5FCxmW6zp7bEwmdEX-40" value="容量" style="shape=partialRectangle;html=1;whiteSpace=wrap;connectable=0;strokeColor=#666666;overflow=hidden;fillColor=#f5f5f5;top=0;left=0;bottom=0;right=0;pointerEvents=1;fontSize=16;fontColor=#333333;" vertex="1" parent="BzA5FCxmW6zp7bEwmdEX-14">
          <mxGeometry x="203" width="67" height="43" as="geometry">
            <mxRectangle width="67" height="43" as="alternateBounds" />
          </mxGeometry>
        </mxCell>
        <mxCell id="BzA5FCxmW6zp7bEwmdEX-37" value="状态" style="shape=partialRectangle;html=1;whiteSpace=wrap;connectable=0;overflow=hidden;top=0;left=0;bottom=0;right=0;pointerEvents=1;fontSize=16;fillColor=#f5f5f5;fontColor=#333333;strokeColor=#666666;" vertex="1" parent="BzA5FCxmW6zp7bEwmdEX-14">
          <mxGeometry x="270" width="68" height="43" as="geometry">
            <mxRectangle width="68" height="43" as="alternateBounds" />
          </mxGeometry>
        </mxCell>
        <mxCell id="BzA5FCxmW6zp7bEwmdEX-34" value="发布状态" style="shape=partialRectangle;html=1;whiteSpace=wrap;connectable=0;strokeColor=#666666;overflow=hidden;fillColor=#f5f5f5;top=0;left=0;bottom=0;right=0;pointerEvents=1;fontSize=16;fontColor=#333333;" vertex="1" parent="BzA5FCxmW6zp7bEwmdEX-14">
          <mxGeometry x="338" width="67" height="43" as="geometry">
            <mxRectangle width="67" height="43" as="alternateBounds" />
          </mxGeometry>
        </mxCell>
        <mxCell id="BzA5FCxmW6zp7bEwmdEX-31" value="更新时间" style="shape=partialRectangle;html=1;whiteSpace=wrap;connectable=0;strokeColor=#666666;overflow=hidden;fillColor=#f5f5f5;top=0;left=0;bottom=0;right=0;pointerEvents=1;fontSize=16;fontColor=#333333;" vertex="1" parent="BzA5FCxmW6zp7bEwmdEX-14">
          <mxGeometry x="405" width="68" height="43" as="geometry">
            <mxRectangle width="68" height="43" as="alternateBounds" />
          </mxGeometry>
        </mxCell>
        <mxCell id="BzA5FCxmW6zp7bEwmdEX-28" value="操作" style="shape=partialRectangle;html=1;whiteSpace=wrap;connectable=0;strokeColor=#666666;overflow=hidden;fillColor=#f5f5f5;top=0;left=0;bottom=0;right=0;pointerEvents=1;fontSize=16;fontColor=#333333;" vertex="1" parent="BzA5FCxmW6zp7bEwmdEX-14">
          <mxGeometry x="473" width="107" height="43" as="geometry">
            <mxRectangle width="107" height="43" as="alternateBounds" />
          </mxGeometry>
        </mxCell>
        <mxCell id="BzA5FCxmW6zp7bEwmdEX-18" value="" style="shape=tableRow;horizontal=0;startSize=0;swimlaneHead=0;swimlaneBody=0;strokeColor=inherit;top=0;left=0;bottom=0;right=0;collapsible=0;dropTarget=0;fillColor=none;points=[[0,0.5],[1,0.5]];portConstraint=eastwest;fontSize=16;" vertex="1" parent="BzA5FCxmW6zp7bEwmdEX-13">
          <mxGeometry y="43" width="580" height="44" as="geometry" />
        </mxCell>
        <mxCell id="BzA5FCxmW6zp7bEwmdEX-19" value="traindata" style="shape=partialRectangle;html=1;whiteSpace=wrap;connectable=0;strokeColor=inherit;overflow=hidden;fillColor=none;top=0;left=0;bottom=0;right=0;pointerEvents=1;fontSize=12;" vertex="1" parent="BzA5FCxmW6zp7bEwmdEX-18">
          <mxGeometry width="80" height="44" as="geometry">
            <mxRectangle width="80" height="44" as="alternateBounds" />
          </mxGeometry>
        </mxCell>
        <mxCell id="BzA5FCxmW6zp7bEwmdEX-20" value="SFT-训练集" style="shape=partialRectangle;html=1;whiteSpace=wrap;connectable=0;strokeColor=inherit;overflow=hidden;fillColor=none;top=0;left=0;bottom=0;right=0;pointerEvents=1;fontSize=12;" vertex="1" parent="BzA5FCxmW6zp7bEwmdEX-18">
          <mxGeometry x="80" width="60" height="44" as="geometry">
            <mxRectangle width="60" height="44" as="alternateBounds" />
          </mxGeometry>
        </mxCell>
        <mxCell id="BzA5FCxmW6zp7bEwmdEX-21" value="v1" style="shape=partialRectangle;html=1;whiteSpace=wrap;connectable=0;strokeColor=inherit;overflow=hidden;fillColor=none;top=0;left=0;bottom=0;right=0;pointerEvents=1;fontSize=12;" vertex="1" parent="BzA5FCxmW6zp7bEwmdEX-18">
          <mxGeometry x="140" width="63" height="44" as="geometry">
            <mxRectangle width="63" height="44" as="alternateBounds" />
          </mxGeometry>
        </mxCell>
        <mxCell id="BzA5FCxmW6zp7bEwmdEX-41" value="1000" style="shape=partialRectangle;html=1;whiteSpace=wrap;connectable=0;strokeColor=inherit;overflow=hidden;fillColor=none;top=0;left=0;bottom=0;right=0;pointerEvents=1;fontSize=12;" vertex="1" parent="BzA5FCxmW6zp7bEwmdEX-18">
          <mxGeometry x="203" width="67" height="44" as="geometry">
            <mxRectangle width="67" height="44" as="alternateBounds" />
          </mxGeometry>
        </mxCell>
        <mxCell id="BzA5FCxmW6zp7bEwmdEX-38" value="使用中" style="shape=partialRectangle;html=1;whiteSpace=wrap;connectable=0;strokeColor=inherit;overflow=hidden;fillColor=none;top=0;left=0;bottom=0;right=0;pointerEvents=1;fontSize=12;" vertex="1" parent="BzA5FCxmW6zp7bEwmdEX-18">
          <mxGeometry x="270" width="68" height="44" as="geometry">
            <mxRectangle width="68" height="44" as="alternateBounds" />
          </mxGeometry>
        </mxCell>
        <mxCell id="BzA5FCxmW6zp7bEwmdEX-35" value="已发布" style="shape=partialRectangle;html=1;whiteSpace=wrap;connectable=0;strokeColor=inherit;overflow=hidden;fillColor=none;top=0;left=0;bottom=0;right=0;pointerEvents=1;fontSize=12;" vertex="1" parent="BzA5FCxmW6zp7bEwmdEX-18">
          <mxGeometry x="338" width="67" height="44" as="geometry">
            <mxRectangle width="67" height="44" as="alternateBounds" />
          </mxGeometry>
        </mxCell>
        <mxCell id="BzA5FCxmW6zp7bEwmdEX-32" value="xxx" style="shape=partialRectangle;html=1;whiteSpace=wrap;connectable=0;strokeColor=inherit;overflow=hidden;fillColor=none;top=0;left=0;bottom=0;right=0;pointerEvents=1;fontSize=12;" vertex="1" parent="BzA5FCxmW6zp7bEwmdEX-18">
          <mxGeometry x="405" width="68" height="44" as="geometry">
            <mxRectangle width="68" height="44" as="alternateBounds" />
          </mxGeometry>
        </mxCell>
        <mxCell id="BzA5FCxmW6zp7bEwmdEX-29" value="查看 发布 删除" style="shape=partialRectangle;html=1;whiteSpace=wrap;connectable=0;strokeColor=inherit;overflow=hidden;fillColor=none;top=0;left=0;bottom=0;right=0;pointerEvents=1;fontSize=12;" vertex="1" parent="BzA5FCxmW6zp7bEwmdEX-18">
          <mxGeometry x="473" width="107" height="44" as="geometry">
            <mxRectangle width="107" height="44" as="alternateBounds" />
          </mxGeometry>
        </mxCell>
        <mxCell id="BzA5FCxmW6zp7bEwmdEX-22" value="" style="shape=tableRow;horizontal=0;startSize=0;swimlaneHead=0;swimlaneBody=0;strokeColor=inherit;top=0;left=0;bottom=0;right=0;collapsible=0;dropTarget=0;fillColor=none;points=[[0,0.5],[1,0.5]];portConstraint=eastwest;fontSize=16;" vertex="1" parent="BzA5FCxmW6zp7bEwmdEX-13">
          <mxGeometry y="87" width="580" height="43" as="geometry" />
        </mxCell>
        <mxCell id="BzA5FCxmW6zp7bEwmdEX-23" value="testdata" style="shape=partialRectangle;html=1;whiteSpace=wrap;connectable=0;strokeColor=inherit;overflow=hidden;fillColor=none;top=0;left=0;bottom=0;right=0;pointerEvents=1;fontSize=12;" vertex="1" parent="BzA5FCxmW6zp7bEwmdEX-22">
          <mxGeometry width="80" height="43" as="geometry">
            <mxRectangle width="80" height="43" as="alternateBounds" />
          </mxGeometry>
        </mxCell>
        <mxCell id="BzA5FCxmW6zp7bEwmdEX-24" value="测试集" style="shape=partialRectangle;html=1;whiteSpace=wrap;connectable=0;strokeColor=inherit;overflow=hidden;fillColor=none;top=0;left=0;bottom=0;right=0;pointerEvents=1;fontSize=12;" vertex="1" parent="BzA5FCxmW6zp7bEwmdEX-22">
          <mxGeometry x="80" width="60" height="43" as="geometry">
            <mxRectangle width="60" height="43" as="alternateBounds" />
          </mxGeometry>
        </mxCell>
        <mxCell id="BzA5FCxmW6zp7bEwmdEX-25" value="v1" style="shape=partialRectangle;html=1;whiteSpace=wrap;connectable=0;strokeColor=inherit;overflow=hidden;fillColor=none;top=0;left=0;bottom=0;right=0;pointerEvents=1;fontSize=12;" vertex="1" parent="BzA5FCxmW6zp7bEwmdEX-22">
          <mxGeometry x="140" width="63" height="43" as="geometry">
            <mxRectangle width="63" height="43" as="alternateBounds" />
          </mxGeometry>
        </mxCell>
        <mxCell id="BzA5FCxmW6zp7bEwmdEX-42" value="100" style="shape=partialRectangle;html=1;whiteSpace=wrap;connectable=0;strokeColor=inherit;overflow=hidden;fillColor=none;top=0;left=0;bottom=0;right=0;pointerEvents=1;fontSize=12;" vertex="1" parent="BzA5FCxmW6zp7bEwmdEX-22">
          <mxGeometry x="203" width="67" height="43" as="geometry">
            <mxRectangle width="67" height="43" as="alternateBounds" />
          </mxGeometry>
        </mxCell>
        <mxCell id="BzA5FCxmW6zp7bEwmdEX-39" value="使用中" style="shape=partialRectangle;html=1;whiteSpace=wrap;connectable=0;strokeColor=inherit;overflow=hidden;fillColor=none;top=0;left=0;bottom=0;right=0;pointerEvents=1;fontSize=12;" vertex="1" parent="BzA5FCxmW6zp7bEwmdEX-22">
          <mxGeometry x="270" width="68" height="43" as="geometry">
            <mxRectangle width="68" height="43" as="alternateBounds" />
          </mxGeometry>
        </mxCell>
        <mxCell id="BzA5FCxmW6zp7bEwmdEX-36" value="已发布" style="shape=partialRectangle;html=1;whiteSpace=wrap;connectable=0;strokeColor=inherit;overflow=hidden;fillColor=none;top=0;left=0;bottom=0;right=0;pointerEvents=1;fontSize=12;" vertex="1" parent="BzA5FCxmW6zp7bEwmdEX-22">
          <mxGeometry x="338" width="67" height="43" as="geometry">
            <mxRectangle width="67" height="43" as="alternateBounds" />
          </mxGeometry>
        </mxCell>
        <mxCell id="BzA5FCxmW6zp7bEwmdEX-33" value="xxx" style="shape=partialRectangle;html=1;whiteSpace=wrap;connectable=0;strokeColor=inherit;overflow=hidden;fillColor=none;top=0;left=0;bottom=0;right=0;pointerEvents=1;fontSize=12;" vertex="1" parent="BzA5FCxmW6zp7bEwmdEX-22">
          <mxGeometry x="405" width="68" height="43" as="geometry">
            <mxRectangle width="68" height="43" as="alternateBounds" />
          </mxGeometry>
        </mxCell>
        <mxCell id="BzA5FCxmW6zp7bEwmdEX-30" value="查看 发布 删除" style="shape=partialRectangle;html=1;whiteSpace=wrap;connectable=0;strokeColor=inherit;overflow=hidden;fillColor=none;top=0;left=0;bottom=0;right=0;pointerEvents=1;fontSize=12;" vertex="1" parent="BzA5FCxmW6zp7bEwmdEX-22">
          <mxGeometry x="473" width="107" height="43" as="geometry">
            <mxRectangle width="107" height="43" as="alternateBounds" />
          </mxGeometry>
        </mxCell>
        <mxCell id="BzA5FCxmW6zp7bEwmdEX-26" value="" style="endArrow=none;html=1;rounded=0;entryX=1;entryY=0;entryDx=0;entryDy=0;" edge="1" parent="1" target="BzA5FCxmW6zp7bEwmdEX-7">
          <mxGeometry width="50" height="50" relative="1" as="geometry">
            <mxPoint x="180" y="416" as="sourcePoint" />
            <mxPoint x="180" y="140" as="targetPoint" />
          </mxGeometry>
        </mxCell>
        <mxCell id="BzA5FCxmW6zp7bEwmdEX-27" value="数据管理" style="text;strokeColor=none;fillColor=none;html=1;fontSize=18;fontStyle=1;verticalAlign=middle;align=center;" vertex="1" parent="1">
          <mxGeometry x="180" y="130" width="100" height="40" as="geometry" />
        </mxCell>
        <mxCell id="BzA5FCxmW6zp7bEwmdEX-43" value="Search" style="strokeWidth=1;shadow=0;dashed=0;align=center;html=1;shape=mxgraph.mockup.forms.searchBox;strokeColor=#999999;mainText=;strokeColor2=#008cff;fontColor=#666666;fontSize=17;align=left;spacingLeft=3;whiteSpace=wrap;" vertex="1" parent="1">
          <mxGeometry x="180" y="180" width="150" height="30" as="geometry" />
        </mxCell>
        <mxCell id="BzA5FCxmW6zp7bEwmdEX-44" value="" style="rounded=0;whiteSpace=wrap;html=1;" vertex="1" parent="1">
          <mxGeometry x="80" y="480" width="680" height="290" as="geometry" />
        </mxCell>
        <mxCell id="BzA5FCxmW6zp7bEwmdEX-45" value="目录" style="text;strokeColor=none;fillColor=none;html=1;fontSize=18;fontStyle=1;verticalAlign=middle;align=center;" vertex="1" parent="1">
          <mxGeometry x="80" y="480" width="100" height="40" as="geometry" />
        </mxCell>
        <mxCell id="BzA5FCxmW6zp7bEwmdEX-46" value="数据管理" style="text;strokeColor=#666666;fillColor=#f5f5f5;html=1;fontSize=18;fontStyle=1;verticalAlign=middle;align=center;fontColor=#333333;" vertex="1" parent="1">
          <mxGeometry x="80" y="560" width="100" height="40" as="geometry" />
        </mxCell>
        <mxCell id="BzA5FCxmW6zp7bEwmdEX-47" value="作业" style="text;strokeColor=none;fillColor=none;html=1;fontSize=18;fontStyle=1;verticalAlign=middle;align=center;" vertex="1" parent="1">
          <mxGeometry x="80" y="520" width="100" height="40" as="geometry" />
        </mxCell>
        <mxCell id="BzA5FCxmW6zp7bEwmdEX-76" value="" style="endArrow=none;html=1;rounded=0;entryX=1;entryY=0;entryDx=0;entryDy=0;" edge="1" parent="1" target="BzA5FCxmW6zp7bEwmdEX-45">
          <mxGeometry width="50" height="50" relative="1" as="geometry">
            <mxPoint x="180" y="766" as="sourcePoint" />
            <mxPoint x="180" y="490" as="targetPoint" />
          </mxGeometry>
        </mxCell>
        <mxCell id="BzA5FCxmW6zp7bEwmdEX-77" value="数据管理" style="text;strokeColor=none;fillColor=none;html=1;fontSize=18;fontStyle=1;verticalAlign=middle;align=center;" vertex="1" parent="1">
          <mxGeometry x="173.75" y="480" width="100" height="40" as="geometry" />
        </mxCell>
        <mxCell id="BzA5FCxmW6zp7bEwmdEX-78" value="Search" style="strokeWidth=1;shadow=0;dashed=0;align=center;html=1;shape=mxgraph.mockup.forms.searchBox;strokeColor=#999999;mainText=;strokeColor2=#008cff;fontColor=#666666;fontSize=17;align=left;spacingLeft=3;whiteSpace=wrap;" vertex="1" parent="1">
          <mxGeometry x="267.5" y="540" width="150" height="30" as="geometry" />
        </mxCell>
        <mxCell id="BzA5FCxmW6zp7bEwmdEX-79" value="" style="endArrow=none;html=1;rounded=0;entryX=1;entryY=0;entryDx=0;entryDy=0;" edge="1" parent="1">
          <mxGeometry width="50" height="50" relative="1" as="geometry">
            <mxPoint x="267.5" y="768" as="sourcePoint" />
            <mxPoint x="267.5" y="482" as="targetPoint" />
          </mxGeometry>
        </mxCell>
        <mxCell id="BzA5FCxmW6zp7bEwmdEX-80" value="数据版本" style="rounded=0;whiteSpace=wrap;html=1;fontSize=16;" vertex="1" parent="1">
          <mxGeometry x="180" y="530" width="87.5" height="30" as="geometry" />
        </mxCell>
        <mxCell id="BzA5FCxmW6zp7bEwmdEX-81" value="&lt;ul&gt;&lt;li&gt;V1&lt;/li&gt;&lt;li&gt;V2&lt;/li&gt;&lt;/ul&gt;" style="text;strokeColor=none;fillColor=none;html=1;whiteSpace=wrap;verticalAlign=middle;overflow=hidden;" vertex="1" parent="1">
          <mxGeometry x="177.5" y="585" width="90" height="65" as="geometry" />
        </mxCell>
        <mxCell id="BzA5FCxmW6zp7bEwmdEX-82" value="数据集详区域，标签，所有者，状态，时间等属性" style="rounded=0;whiteSpace=wrap;html=1;fontSize=16;" vertex="1" parent="1">
          <mxGeometry x="267.5" y="480" width="492.5" height="60" as="geometry" />
        </mxCell>
        <mxCell id="BzA5FCxmW6zp7bEwmdEX-83" value="" style="shape=table;startSize=0;container=1;collapsible=0;childLayout=tableLayout;fontSize=16;" vertex="1" parent="1">
          <mxGeometry x="270" y="570" width="490" height="160" as="geometry" />
        </mxCell>
        <mxCell id="BzA5FCxmW6zp7bEwmdEX-84" value="" style="shape=tableRow;horizontal=0;startSize=0;swimlaneHead=0;swimlaneBody=0;strokeColor=inherit;top=0;left=0;bottom=0;right=0;collapsible=0;dropTarget=0;fillColor=none;points=[[0,0.5],[1,0.5]];portConstraint=eastwest;fontSize=16;" vertex="1" parent="BzA5FCxmW6zp7bEwmdEX-83">
          <mxGeometry width="490" height="40" as="geometry" />
        </mxCell>
        <mxCell id="BzA5FCxmW6zp7bEwmdEX-85" value="序号" style="shape=partialRectangle;html=1;whiteSpace=wrap;connectable=0;strokeColor=inherit;overflow=hidden;fillColor=none;top=0;left=0;bottom=0;right=0;pointerEvents=1;fontSize=16;" vertex="1" parent="BzA5FCxmW6zp7bEwmdEX-84">
          <mxGeometry width="60" height="40" as="geometry">
            <mxRectangle width="60" height="40" as="alternateBounds" />
          </mxGeometry>
        </mxCell>
        <mxCell id="BzA5FCxmW6zp7bEwmdEX-86" value="内容" style="shape=partialRectangle;html=1;whiteSpace=wrap;connectable=0;strokeColor=inherit;overflow=hidden;fillColor=none;top=0;left=0;bottom=0;right=0;pointerEvents=1;fontSize=16;" vertex="1" parent="BzA5FCxmW6zp7bEwmdEX-84">
          <mxGeometry x="60" width="290" height="40" as="geometry">
            <mxRectangle width="290" height="40" as="alternateBounds" />
          </mxGeometry>
        </mxCell>
        <mxCell id="BzA5FCxmW6zp7bEwmdEX-96" value="操作" style="shape=partialRectangle;html=1;whiteSpace=wrap;connectable=0;strokeColor=inherit;overflow=hidden;fillColor=none;top=0;left=0;bottom=0;right=0;pointerEvents=1;fontSize=16;" vertex="1" parent="BzA5FCxmW6zp7bEwmdEX-84">
          <mxGeometry x="350" width="140" height="40" as="geometry">
            <mxRectangle width="140" height="40" as="alternateBounds" />
          </mxGeometry>
        </mxCell>
        <mxCell id="BzA5FCxmW6zp7bEwmdEX-88" value="" style="shape=tableRow;horizontal=0;startSize=0;swimlaneHead=0;swimlaneBody=0;strokeColor=inherit;top=0;left=0;bottom=0;right=0;collapsible=0;dropTarget=0;fillColor=none;points=[[0,0.5],[1,0.5]];portConstraint=eastwest;fontSize=16;" vertex="1" parent="BzA5FCxmW6zp7bEwmdEX-83">
          <mxGeometry y="40" width="490" height="40" as="geometry" />
        </mxCell>
        <mxCell id="BzA5FCxmW6zp7bEwmdEX-89" value="1" style="shape=partialRectangle;html=1;whiteSpace=wrap;connectable=0;strokeColor=inherit;overflow=hidden;fillColor=none;top=0;left=0;bottom=0;right=0;pointerEvents=1;fontSize=16;" vertex="1" parent="BzA5FCxmW6zp7bEwmdEX-88">
          <mxGeometry width="60" height="40" as="geometry">
            <mxRectangle width="60" height="40" as="alternateBounds" />
          </mxGeometry>
        </mxCell>
        <mxCell id="BzA5FCxmW6zp7bEwmdEX-90" value="" style="shape=partialRectangle;html=1;whiteSpace=wrap;connectable=0;strokeColor=inherit;overflow=hidden;fillColor=none;top=0;left=0;bottom=0;right=0;pointerEvents=1;fontSize=16;" vertex="1" parent="BzA5FCxmW6zp7bEwmdEX-88">
          <mxGeometry x="60" width="290" height="40" as="geometry">
            <mxRectangle width="290" height="40" as="alternateBounds" />
          </mxGeometry>
        </mxCell>
        <mxCell id="BzA5FCxmW6zp7bEwmdEX-97" value="编辑 删除 复制" style="shape=partialRectangle;html=1;whiteSpace=wrap;connectable=0;strokeColor=inherit;overflow=hidden;fillColor=none;top=0;left=0;bottom=0;right=0;pointerEvents=1;fontSize=16;" vertex="1" parent="BzA5FCxmW6zp7bEwmdEX-88">
          <mxGeometry x="350" width="140" height="40" as="geometry">
            <mxRectangle width="140" height="40" as="alternateBounds" />
          </mxGeometry>
        </mxCell>
        <mxCell id="BzA5FCxmW6zp7bEwmdEX-92" value="" style="shape=tableRow;horizontal=0;startSize=0;swimlaneHead=0;swimlaneBody=0;strokeColor=inherit;top=0;left=0;bottom=0;right=0;collapsible=0;dropTarget=0;fillColor=none;points=[[0,0.5],[1,0.5]];portConstraint=eastwest;fontSize=16;" vertex="1" parent="BzA5FCxmW6zp7bEwmdEX-83">
          <mxGeometry y="80" width="490" height="40" as="geometry" />
        </mxCell>
        <mxCell id="BzA5FCxmW6zp7bEwmdEX-93" value="2" style="shape=partialRectangle;html=1;whiteSpace=wrap;connectable=0;strokeColor=inherit;overflow=hidden;fillColor=none;top=0;left=0;bottom=0;right=0;pointerEvents=1;fontSize=16;" vertex="1" parent="BzA5FCxmW6zp7bEwmdEX-92">
          <mxGeometry width="60" height="40" as="geometry">
            <mxRectangle width="60" height="40" as="alternateBounds" />
          </mxGeometry>
        </mxCell>
        <mxCell id="BzA5FCxmW6zp7bEwmdEX-94" value="" style="shape=partialRectangle;html=1;whiteSpace=wrap;connectable=0;strokeColor=inherit;overflow=hidden;fillColor=none;top=0;left=0;bottom=0;right=0;pointerEvents=1;fontSize=16;" vertex="1" parent="BzA5FCxmW6zp7bEwmdEX-92">
          <mxGeometry x="60" width="290" height="40" as="geometry">
            <mxRectangle width="290" height="40" as="alternateBounds" />
          </mxGeometry>
        </mxCell>
        <mxCell id="BzA5FCxmW6zp7bEwmdEX-98" style="shape=partialRectangle;html=1;whiteSpace=wrap;connectable=0;strokeColor=inherit;overflow=hidden;fillColor=none;top=0;left=0;bottom=0;right=0;pointerEvents=1;fontSize=16;" vertex="1" parent="BzA5FCxmW6zp7bEwmdEX-92">
          <mxGeometry x="350" width="140" height="40" as="geometry">
            <mxRectangle width="140" height="40" as="alternateBounds" />
          </mxGeometry>
        </mxCell>
        <mxCell id="BzA5FCxmW6zp7bEwmdEX-99" style="shape=tableRow;horizontal=0;startSize=0;swimlaneHead=0;swimlaneBody=0;strokeColor=inherit;top=0;left=0;bottom=0;right=0;collapsible=0;dropTarget=0;fillColor=none;points=[[0,0.5],[1,0.5]];portConstraint=eastwest;fontSize=16;" vertex="1" parent="BzA5FCxmW6zp7bEwmdEX-83">
          <mxGeometry y="120" width="490" height="40" as="geometry" />
        </mxCell>
        <mxCell id="BzA5FCxmW6zp7bEwmdEX-100" value="3" style="shape=partialRectangle;html=1;whiteSpace=wrap;connectable=0;strokeColor=inherit;overflow=hidden;fillColor=none;top=0;left=0;bottom=0;right=0;pointerEvents=1;fontSize=16;" vertex="1" parent="BzA5FCxmW6zp7bEwmdEX-99">
          <mxGeometry width="60" height="40" as="geometry">
            <mxRectangle width="60" height="40" as="alternateBounds" />
          </mxGeometry>
        </mxCell>
        <mxCell id="BzA5FCxmW6zp7bEwmdEX-101" style="shape=partialRectangle;html=1;whiteSpace=wrap;connectable=0;strokeColor=inherit;overflow=hidden;fillColor=none;top=0;left=0;bottom=0;right=0;pointerEvents=1;fontSize=16;" vertex="1" parent="BzA5FCxmW6zp7bEwmdEX-99">
          <mxGeometry x="60" width="290" height="40" as="geometry">
            <mxRectangle width="290" height="40" as="alternateBounds" />
          </mxGeometry>
        </mxCell>
        <mxCell id="BzA5FCxmW6zp7bEwmdEX-102" style="shape=partialRectangle;html=1;whiteSpace=wrap;connectable=0;strokeColor=inherit;overflow=hidden;fillColor=none;top=0;left=0;bottom=0;right=0;pointerEvents=1;fontSize=16;" vertex="1" parent="BzA5FCxmW6zp7bEwmdEX-99">
          <mxGeometry x="350" width="140" height="40" as="geometry">
            <mxRectangle width="140" height="40" as="alternateBounds" />
          </mxGeometry>
        </mxCell>
        <mxCell id="BzA5FCxmW6zp7bEwmdEX-104" value="&lt;font style=&quot;font-size: 12px;&quot;&gt;新增版本&lt;/font&gt;" style="text;strokeColor=none;fillColor=none;html=1;fontSize=24;fontStyle=1;verticalAlign=middle;align=center;" vertex="1" parent="1">
          <mxGeometry x="180" y="560" width="76" height="25" as="geometry" />
        </mxCell>
        <mxCell id="BzA5FCxmW6zp7bEwmdEX-105" value="" style="rounded=0;whiteSpace=wrap;html=1;" vertex="1" parent="1">
          <mxGeometry x="80" y="800" width="680" height="290" as="geometry" />
        </mxCell>
        <mxCell id="BzA5FCxmW6zp7bEwmdEX-106" value="目录" style="text;strokeColor=none;fillColor=none;html=1;fontSize=18;fontStyle=1;verticalAlign=middle;align=center;" vertex="1" parent="1">
          <mxGeometry x="80" y="800" width="100" height="40" as="geometry" />
        </mxCell>
        <mxCell id="BzA5FCxmW6zp7bEwmdEX-107" value="数据管理" style="text;strokeColor=#666666;fillColor=#f5f5f5;html=1;fontSize=18;fontStyle=1;verticalAlign=middle;align=center;fontColor=#333333;" vertex="1" parent="1">
          <mxGeometry x="80" y="880" width="100" height="40" as="geometry" />
        </mxCell>
        <mxCell id="BzA5FCxmW6zp7bEwmdEX-108" value="作业" style="text;strokeColor=none;fillColor=none;html=1;fontSize=18;fontStyle=1;verticalAlign=middle;align=center;" vertex="1" parent="1">
          <mxGeometry x="80" y="840" width="100" height="40" as="geometry" />
        </mxCell>
        <mxCell id="BzA5FCxmW6zp7bEwmdEX-109" value="" style="endArrow=none;html=1;rounded=0;entryX=1;entryY=0;entryDx=0;entryDy=0;" edge="1" parent="1" target="BzA5FCxmW6zp7bEwmdEX-106">
          <mxGeometry width="50" height="50" relative="1" as="geometry">
            <mxPoint x="180" y="1086" as="sourcePoint" />
            <mxPoint x="180" y="810" as="targetPoint" />
          </mxGeometry>
        </mxCell>
        <mxCell id="BzA5FCxmW6zp7bEwmdEX-110" value="数据管理" style="text;strokeColor=none;fillColor=none;html=1;fontSize=18;fontStyle=1;verticalAlign=middle;align=center;" vertex="1" parent="1">
          <mxGeometry x="173.75" y="800" width="100" height="40" as="geometry" />
        </mxCell>
        <mxCell id="BzA5FCxmW6zp7bEwmdEX-111" value="Search" style="strokeWidth=1;shadow=0;dashed=0;align=center;html=1;shape=mxgraph.mockup.forms.searchBox;strokeColor=#999999;mainText=;strokeColor2=#008cff;fontColor=#666666;fontSize=17;align=left;spacingLeft=3;whiteSpace=wrap;" vertex="1" parent="1">
          <mxGeometry x="267.5" y="860" width="150" height="30" as="geometry" />
        </mxCell>
        <mxCell id="BzA5FCxmW6zp7bEwmdEX-112" value="" style="endArrow=none;html=1;rounded=0;entryX=1;entryY=0;entryDx=0;entryDy=0;" edge="1" parent="1">
          <mxGeometry width="50" height="50" relative="1" as="geometry">
            <mxPoint x="267.5" y="1088" as="sourcePoint" />
            <mxPoint x="267.5" y="802" as="targetPoint" />
          </mxGeometry>
        </mxCell>
        <mxCell id="BzA5FCxmW6zp7bEwmdEX-113" value="数据版本" style="rounded=0;whiteSpace=wrap;html=1;fontSize=16;" vertex="1" parent="1">
          <mxGeometry x="180" y="850" width="87.5" height="30" as="geometry" />
        </mxCell>
        <mxCell id="BzA5FCxmW6zp7bEwmdEX-114" value="&lt;ul&gt;&lt;li&gt;V1&lt;/li&gt;&lt;li&gt;V2&lt;/li&gt;&lt;/ul&gt;" style="text;strokeColor=none;fillColor=none;html=1;whiteSpace=wrap;verticalAlign=middle;overflow=hidden;" vertex="1" parent="1">
          <mxGeometry x="177.5" y="905" width="90" height="65" as="geometry" />
        </mxCell>
        <mxCell id="BzA5FCxmW6zp7bEwmdEX-115" value="数据集详区域，标签，所有者，状态，时间等属性" style="rounded=0;whiteSpace=wrap;html=1;fontSize=16;" vertex="1" parent="1">
          <mxGeometry x="267.5" y="800" width="492.5" height="60" as="geometry" />
        </mxCell>
        <mxCell id="BzA5FCxmW6zp7bEwmdEX-116" value="" style="shape=table;startSize=0;container=1;collapsible=0;childLayout=tableLayout;fontSize=16;" vertex="1" parent="1">
          <mxGeometry x="270" y="890" width="490" height="160" as="geometry" />
        </mxCell>
        <mxCell id="BzA5FCxmW6zp7bEwmdEX-117" value="" style="shape=tableRow;horizontal=0;startSize=0;swimlaneHead=0;swimlaneBody=0;strokeColor=inherit;top=0;left=0;bottom=0;right=0;collapsible=0;dropTarget=0;fillColor=none;points=[[0,0.5],[1,0.5]];portConstraint=eastwest;fontSize=16;" vertex="1" parent="BzA5FCxmW6zp7bEwmdEX-116">
          <mxGeometry width="490" height="40" as="geometry" />
        </mxCell>
        <mxCell id="BzA5FCxmW6zp7bEwmdEX-118" value="序号" style="shape=partialRectangle;html=1;whiteSpace=wrap;connectable=0;strokeColor=inherit;overflow=hidden;fillColor=none;top=0;left=0;bottom=0;right=0;pointerEvents=1;fontSize=16;" vertex="1" parent="BzA5FCxmW6zp7bEwmdEX-117">
          <mxGeometry width="60" height="40" as="geometry">
            <mxRectangle width="60" height="40" as="alternateBounds" />
          </mxGeometry>
        </mxCell>
        <mxCell id="BzA5FCxmW6zp7bEwmdEX-119" value="内容" style="shape=partialRectangle;html=1;whiteSpace=wrap;connectable=0;strokeColor=inherit;overflow=hidden;fillColor=none;top=0;left=0;bottom=0;right=0;pointerEvents=1;fontSize=16;" vertex="1" parent="BzA5FCxmW6zp7bEwmdEX-117">
          <mxGeometry x="60" width="290" height="40" as="geometry">
            <mxRectangle width="290" height="40" as="alternateBounds" />
          </mxGeometry>
        </mxCell>
        <mxCell id="BzA5FCxmW6zp7bEwmdEX-120" value="操作" style="shape=partialRectangle;html=1;whiteSpace=wrap;connectable=0;strokeColor=inherit;overflow=hidden;fillColor=none;top=0;left=0;bottom=0;right=0;pointerEvents=1;fontSize=16;" vertex="1" parent="BzA5FCxmW6zp7bEwmdEX-117">
          <mxGeometry x="350" width="140" height="40" as="geometry">
            <mxRectangle width="140" height="40" as="alternateBounds" />
          </mxGeometry>
        </mxCell>
        <mxCell id="BzA5FCxmW6zp7bEwmdEX-121" value="" style="shape=tableRow;horizontal=0;startSize=0;swimlaneHead=0;swimlaneBody=0;strokeColor=inherit;top=0;left=0;bottom=0;right=0;collapsible=0;dropTarget=0;fillColor=none;points=[[0,0.5],[1,0.5]];portConstraint=eastwest;fontSize=16;" vertex="1" parent="BzA5FCxmW6zp7bEwmdEX-116">
          <mxGeometry y="40" width="490" height="40" as="geometry" />
        </mxCell>
        <mxCell id="BzA5FCxmW6zp7bEwmdEX-122" value="1" style="shape=partialRectangle;html=1;whiteSpace=wrap;connectable=0;strokeColor=inherit;overflow=hidden;fillColor=none;top=0;left=0;bottom=0;right=0;pointerEvents=1;fontSize=16;" vertex="1" parent="BzA5FCxmW6zp7bEwmdEX-121">
          <mxGeometry width="60" height="40" as="geometry">
            <mxRectangle width="60" height="40" as="alternateBounds" />
          </mxGeometry>
        </mxCell>
        <mxCell id="BzA5FCxmW6zp7bEwmdEX-123" value="" style="shape=partialRectangle;html=1;whiteSpace=wrap;connectable=0;strokeColor=inherit;overflow=hidden;fillColor=none;top=0;left=0;bottom=0;right=0;pointerEvents=1;fontSize=16;" vertex="1" parent="BzA5FCxmW6zp7bEwmdEX-121">
          <mxGeometry x="60" width="290" height="40" as="geometry">
            <mxRectangle width="290" height="40" as="alternateBounds" />
          </mxGeometry>
        </mxCell>
        <mxCell id="BzA5FCxmW6zp7bEwmdEX-124" value="编辑 删除 复制" style="shape=partialRectangle;html=1;whiteSpace=wrap;connectable=0;strokeColor=inherit;overflow=hidden;fillColor=none;top=0;left=0;bottom=0;right=0;pointerEvents=1;fontSize=16;" vertex="1" parent="BzA5FCxmW6zp7bEwmdEX-121">
          <mxGeometry x="350" width="140" height="40" as="geometry">
            <mxRectangle width="140" height="40" as="alternateBounds" />
          </mxGeometry>
        </mxCell>
        <mxCell id="BzA5FCxmW6zp7bEwmdEX-125" value="" style="shape=tableRow;horizontal=0;startSize=0;swimlaneHead=0;swimlaneBody=0;strokeColor=inherit;top=0;left=0;bottom=0;right=0;collapsible=0;dropTarget=0;fillColor=none;points=[[0,0.5],[1,0.5]];portConstraint=eastwest;fontSize=16;" vertex="1" parent="BzA5FCxmW6zp7bEwmdEX-116">
          <mxGeometry y="80" width="490" height="40" as="geometry" />
        </mxCell>
        <mxCell id="BzA5FCxmW6zp7bEwmdEX-126" value="2" style="shape=partialRectangle;html=1;whiteSpace=wrap;connectable=0;strokeColor=inherit;overflow=hidden;fillColor=none;top=0;left=0;bottom=0;right=0;pointerEvents=1;fontSize=16;" vertex="1" parent="BzA5FCxmW6zp7bEwmdEX-125">
          <mxGeometry width="60" height="40" as="geometry">
            <mxRectangle width="60" height="40" as="alternateBounds" />
          </mxGeometry>
        </mxCell>
        <mxCell id="BzA5FCxmW6zp7bEwmdEX-127" value="" style="shape=partialRectangle;html=1;whiteSpace=wrap;connectable=0;strokeColor=inherit;overflow=hidden;fillColor=none;top=0;left=0;bottom=0;right=0;pointerEvents=1;fontSize=16;" vertex="1" parent="BzA5FCxmW6zp7bEwmdEX-125">
          <mxGeometry x="60" width="290" height="40" as="geometry">
            <mxRectangle width="290" height="40" as="alternateBounds" />
          </mxGeometry>
        </mxCell>
        <mxCell id="BzA5FCxmW6zp7bEwmdEX-128" style="shape=partialRectangle;html=1;whiteSpace=wrap;connectable=0;strokeColor=inherit;overflow=hidden;fillColor=none;top=0;left=0;bottom=0;right=0;pointerEvents=1;fontSize=16;" vertex="1" parent="BzA5FCxmW6zp7bEwmdEX-125">
          <mxGeometry x="350" width="140" height="40" as="geometry">
            <mxRectangle width="140" height="40" as="alternateBounds" />
          </mxGeometry>
        </mxCell>
        <mxCell id="BzA5FCxmW6zp7bEwmdEX-129" style="shape=tableRow;horizontal=0;startSize=0;swimlaneHead=0;swimlaneBody=0;strokeColor=inherit;top=0;left=0;bottom=0;right=0;collapsible=0;dropTarget=0;fillColor=none;points=[[0,0.5],[1,0.5]];portConstraint=eastwest;fontSize=16;" vertex="1" parent="BzA5FCxmW6zp7bEwmdEX-116">
          <mxGeometry y="120" width="490" height="40" as="geometry" />
        </mxCell>
        <mxCell id="BzA5FCxmW6zp7bEwmdEX-130" value="3" style="shape=partialRectangle;html=1;whiteSpace=wrap;connectable=0;strokeColor=inherit;overflow=hidden;fillColor=none;top=0;left=0;bottom=0;right=0;pointerEvents=1;fontSize=16;" vertex="1" parent="BzA5FCxmW6zp7bEwmdEX-129">
          <mxGeometry width="60" height="40" as="geometry">
            <mxRectangle width="60" height="40" as="alternateBounds" />
          </mxGeometry>
        </mxCell>
        <mxCell id="BzA5FCxmW6zp7bEwmdEX-131" style="shape=partialRectangle;html=1;whiteSpace=wrap;connectable=0;strokeColor=inherit;overflow=hidden;fillColor=none;top=0;left=0;bottom=0;right=0;pointerEvents=1;fontSize=16;" vertex="1" parent="BzA5FCxmW6zp7bEwmdEX-129">
          <mxGeometry x="60" width="290" height="40" as="geometry">
            <mxRectangle width="290" height="40" as="alternateBounds" />
          </mxGeometry>
        </mxCell>
        <mxCell id="BzA5FCxmW6zp7bEwmdEX-132" style="shape=partialRectangle;html=1;whiteSpace=wrap;connectable=0;strokeColor=inherit;overflow=hidden;fillColor=none;top=0;left=0;bottom=0;right=0;pointerEvents=1;fontSize=16;" vertex="1" parent="BzA5FCxmW6zp7bEwmdEX-129">
          <mxGeometry x="350" width="140" height="40" as="geometry">
            <mxRectangle width="140" height="40" as="alternateBounds" />
          </mxGeometry>
        </mxCell>
        <mxCell id="BzA5FCxmW6zp7bEwmdEX-133" value="&lt;font style=&quot;font-size: 12px;&quot;&gt;新增版本&lt;/font&gt;" style="text;strokeColor=none;fillColor=none;html=1;fontSize=24;fontStyle=1;verticalAlign=middle;align=center;" vertex="1" parent="1">
          <mxGeometry x="180" y="880" width="76" height="25" as="geometry" />
        </mxCell>
      </root>
    </mxGraphModel>
  </diagram>
</mxfile>
